<?xml version="1.0" standalone="no"?>
<!DOCTYPE svg PUBLIC "-//W3C//DTD SVG 20010904//EN"
 "http://www.w3.org/TR/2001/REC-SVG-20010904/DTD/svg10.dtd">
<svg version="1.0" xmlns="http://www.w3.org/2000/svg"
 width="512.000000pt" height="512.000000pt" viewBox="0 0 512.000000 512.000000"
 preserveAspectRatio="xMidYMid meet">

<g transform="translate(0.000000,512.000000) scale(0.100000,-0.100000)"
fill="#000000" stroke="none">
<path d="M1092 4895 c-90 -25 -162 -85 -206 -172 l-16 -31 -197 -4 c-193 -3
-199 -4 -255 -31 -72 -35 -149 -119 -180 -195 l-23 -57 0 -1635 0 -1635 32
-67 c40 -84 97 -141 181 -181 l67 -32 1186 -3 1186 -2 19 -43 c57 -126 193
-289 325 -387 207 -154 484 -230 736 -202 145 16 237 43 368 107 666 327 797
1219 255 1729 -76 71 -185 147 -257 180 l-42 19 -3 1076 -3 1076 -23 57 c-31
76 -108 160 -180 195 -56 27 -62 28 -255 31 l-197 4 -20 37 c-79 157 -256 218
-417 146 -60 -27 -125 -90 -150 -146 l-17 -39 -765 0 -766 1 -19 41 c-59 127
-225 202 -364 163z m131 -216 c47 -21 57 -56 57 -199 0 -105 -3 -138 -17 -160
-34 -58 -116 -68 -164 -21 l-29 29 0 152 0 152 29 29 c32 31 79 38 124 18z
m2158 -18 l29 -29 0 -152 0 -152 -29 -29 c-48 -47 -130 -37 -164 21 -25 41
-25 279 0 320 34 58 116 68 164 21z m-2529 -269 c9 -155 70 -252 197 -310 151
-70 336 -1 412 154 19 39 25 68 27 147 l4 97 749 0 749 0 0 -85 c0 -108 25
-177 86 -240 82 -85 195 -119 302 -91 155 39 240 151 250 327 l5 89 151 0
c171 0 203 -9 243 -69 22 -33 23 -40 23 -302 l0 -269 -1810 0 -1810 0 0 269
c0 262 1 269 23 302 40 60 72 69 243 69 l151 0 5 -88z m3198 -1412 l0 -651
-62 8 c-638 82 -1205 -404 -1212 -1037 0 -58 3 -133 7 -168 l8 -62 -1140 2
-1141 3 -37 38 -38 37 -3 1240 -2 1240 1810 0 1810 0 0 -650z m-43 -864 c283
-60 523 -260 623 -519 43 -109 60 -203 60 -320 -1 -234 -83 -431 -249 -598
-167 -166 -364 -248 -598 -249 -177 0 -330 45 -474 142 -240 160 -379 420
-379 708 0 405 277 747 675 835 82 18 259 18 342 1z"/>
<path d="M904 3181 c-17 -11 -36 -34 -43 -52 -17 -50 -15 -460 3 -504 26 -61
47 -65 311 -65 257 0 280 4 304 57 16 34 15 494 -1 528 -23 51 -46 55 -305 55
-216 0 -241 -2 -269 -19z m376 -301 l0 -110 -105 0 -105 0 0 110 0 110 105 0
105 0 0 -110z"/>
<path d="M1985 3191 c-11 -5 -29 -19 -40 -31 -19 -21 -20 -36 -20 -281 l0
-259 28 -27 27 -28 260 0 260 0 27 28 28 27 0 260 0 260 -28 27 -27 28 -248 2
c-136 1 -256 -2 -267 -6z m360 -311 l0 -105 -105 0 -105 0 -3 94 c-1 52 0 101
2 108 4 11 29 13 108 11 l103 -3 0 -105z"/>
<path d="M3038 3183 c-14 -9 -31 -27 -37 -40 -15 -32 -15 -494 0 -526 24 -53
47 -57 304 -57 195 0 241 3 266 16 53 27 59 59 59 304 0 245 -6 277 -59 304
-46 24 -494 23 -533 -1z m372 -303 l0 -110 -105 0 -105 0 0 110 0 110 105 0
105 0 0 -110z"/>
<path d="M901 2114 c-45 -32 -51 -67 -51 -305 0 -330 -11 -319 319 -319 238 0
273 6 305 51 14 20 16 59 16 277 l0 254 -29 29 -29 29 -254 0 c-218 0 -257 -2
-277 -16z m379 -299 l0 -105 -105 0 -105 0 0 105 0 105 105 0 105 0 0 -105z"/>
<path d="M1974 2119 c-49 -25 -54 -50 -54 -304 0 -264 4 -285 65 -311 49 -20
461 -20 510 0 61 26 65 47 65 311 0 257 -4 280 -57 304 -31 14 -500 14 -529 0z
m376 -304 l0 -105 -110 0 -110 0 0 105 0 105 110 0 110 0 0 -105z"/>
<path d="M3781 1794 c-45 -32 -51 -67 -51 -303 0 -130 4 -231 11 -247 12 -33
209 -236 257 -266 82 -51 186 31 157 123 -4 13 -52 69 -106 124 l-99 102 0
192 c0 206 -7 244 -51 275 -13 9 -39 16 -59 16 -20 0 -46 -7 -59 -16z"/>
</g>
</svg>
